#!OML:ASF F:\VICON\USERDATA\INSTALL\rory3\rory3.ASF
:FULLY-SPECIFIED
:DEGREES
280
root 3.13946 17.3996 -9.02819 -1.74549 2.50738 7.27
lowerback 18.0621 -2.01615 -8.17087
upperback 0.22034 -4.27925 0.937773
thorax -9.23526 -1.65061 6.7539
lowerneck -6.20669 -7.61689 -5.21927
upperneck 32.8657 -10.2612 -0.0554428
head 12.1047 -5.27505 -0.368676
rclavicle -4.47266e-015 -5.56597e-015
rhumerus -10.3552 -12.5789 -61.3992
rradius 62.9943
rwrist 28.4231
rhand -14.5396 8.4846
rfingers 7.12502
rthumb 11.6088 -21.1738
lclavicle -4.47266e-015 -5.56597e-015
lhumerus -24.6733 -10.9117 80.8351
lradius 55.5892
lwrist 3.56917
lhand -13.4068 44.1603
lfingers 7.12502
lthumb 12.701 73.7541
rfemur -32.3912 6.54677 8.22383
rtibia 18.9839
rfoot -16.2482 -25.7743
rtoes 13.8181
lfemur 16.8396 -3.75378 -30.795
ltibia 9.84377
lfoot -15.8671 -0.89144
ltoes -12.5201
281
root 3.10554 17.3762 -8.83054 -1.61612 3.14057 7.16345
lowerback 17.9909 -2.05768 -8.06137
upperback 0.0777172 -4.30782 0.981936
thorax -9.35369 -1.65674 6.7489
lowerneck -6.00143 -7.78795 -5.30496
upperneck 32.8855 -10.5158 -0.0125009
head 12.0889 -5.39482 -0.361816
rclavicle -1.04362e-014 -8.74653e-015
rhumerus -10.9008 -11.6559 -61.3549
rradius 60.5073
rwrist 28.4802
rhand -12.2968 8.63562
rfingers 7.12502
rthumb 13.771 -20.8886
lclavicle -1.04362e-014 -8.74653e-015
lhumerus -24.6662 -11.3977 81.191
lradius 55.5169
lwrist 3.03555
lhand -13.4687 43.8645
lfingers 7.12502
lthumb 12.6414 73.462
rfemur -32.3826 6.45399 8.08177
rtibia 18.9479
rfoot -16.6485 -26.2696
rtoes 13.9019
lfemur 17.7007 -4.12546 -30.5054
ltibia 9.46778
lfoot -15.4961 -1.16919
ltoes -14.4394
282
root 3.07116 17.3586 -8.62996 -1.52529 3.66337 6.99062
lowerback 17.8623 -2.09764 -7.87494
upperback 0.114509 -4.29914 1.07984
thorax -9.24675 -1.66667 6.73744
lowerneck -6.39018 -7.94304 -5.51213
upperneck 33.0078 -10.7029 0.0489111
head 12.2451 -5.48532 -0.354008
rclavicle 5.04913e-014 1.43125e-014
rhumerus -10.7868 -11.1998 -61.5332
rradius 57.784
rwrist 28.6876
rhand -11.8856 7.75588
rfingers 7.12502
rthumb 14.1672 -21.7411
lclavicle 5.04913e-014 1.43125e-014
lhumerus -24.5786 -11.6388 81.5213
lradius 55.544
lwrist 2.52283
lhand -13.7024 43.6965
lfingers 7.12502
lthumb 12.416 73.3077
rfemur -32.3838 5.956 8.31682
rtibia 19.2304
rfoot -16.1561 -26.4187
rtoes 14.2308
lfemur 18.2993 -4.39533 -30.1103
ltibia 9.58347
lfoot -15.2508 -1.6166
ltoes -15.0827
283
root 3.03537 17.3483 -8.42413 -1.4774 4.01756 6.99201
lowerback 17.8394 -2.05686 -7.86199
upperback 0.162584 -4.23494 1.11069
thorax -9.1895 -1.64062 6.74524
lowerneck -6.89371 -8.08012 -5.66147
upperneck 33.1351 -10.8747 0.132211
head 12.425 -5.55719 -0.352401
rclavicle 4.68138e-014 -1.98785e-014
rhumerus -10.5117 -11.0832 -61.8504
rradius 55.0432
rwrist 29.279
rhand -10.0318 6.66234
rfingers 7.12502
rthumb 15.953 -22.7007
lclavicle 4.68138e-014 -1.98785e-014
lhumerus -24.5728 -11.8515 81.8301
lradius 55.6723
lwrist 2.18211
lhand -13.0714 43.2362
lfingers 7.12502
lthumb 13.0244 72.8096
rfemur -32.3491 4.94305 8.71451
rtibia 19.736
rfoot -14.8718 -25.9759
rtoes 14.6225
lfemur 18.6009 -4.48699 -29.8806
ltibia 10.1251
lfoot -15.0168 -2.08047
ltoes -15.9069
284
root 3.00211 17.347 -8.21263 -1.48262 4.46285 7.14927
lowerback 17.8562 -2.0664 -8.01563
upperback 0.129479 -4.28182 1.11503
thorax -9.21691 -1.65313 6.85115
lowerneck -6.42496 -8.14198 -6.02309
upperneck 32.6505 -11.0278 0.551249
head 12.1902 -5.62749 -0.121976
rclavicle 1.83876e-014 -1.74931e-014
rhumerus -10.4045 -10.5209 -62.092
rradius 52.2731
rwrist 29.3597
rhand -7.55591 5.68809
rfingers 7.12502
rthumb 18.3361 -23.4677
lclavicle 1.83876e-014 -1.74931e-014
lhumerus -24.768 -11.9025 82.1525
lradius 55.6835
lwrist 1.80072
lhand -10.9462 43.7371
lfingers 7.12502
lthumb 15.0723 73.1684
rfemur -32.1841 3.47015 9.12789
rtibia 20.3938
rfoot -13.2622 -25.1627
rtoes 14.9806
lfemur 18.9424 -4.95345 -29.9429
ltibia 10.6548
lfoot -14.5707 -2.35899
ltoes -16.8051
